<svg xmlns="http://www.w3.org/2000/svg" xmlns:xlink="http://www.w3.org/1999/xlink" viewBox="0 0 64 64" version="1.1">
<g>
<path style=" fill:#2196f3;" d="M 37 3 L 49 3 L 49 45 L 37 45 Z "></path>
<path style=" fill:#2196f3;" d="M 37 3 L 49 3 L 49 9 L 37 9 Z "></path>
<path style=" fill:#fcede6;" d="M 25 7 L 37 7 L 37 45 L 25 45 Z "></path>
<path style=" fill:#fcede6;" d="M 25 7 L 37 7 L 37 13 L 25 13 Z "></path>
<path style=" fill:#2e80b0;" d="M 49 13 L 57 13 L 57 46 L 49 46 Z "></path>
<path style=" fill:#2e80b0;" d="M 49 13 L 57 13 L 57 19 L 49 19 Z "></path>
<path style=" fill:#ff8065;" d="M 15.503906 11.53125 L 25.324219 14.222656 L 17.054688 44.386719 L 7.234375 41.695313 Z "></path>
<path style=" fill:#ff8065;" d="M 15.503906 11.527344 L 25.324219 14.21875 L 24.359375 17.738281 L 14.539063 15.046875 Z "></path>
<path style=" fill:#F9DD8F;" d="M 9 55 L 13 55 L 13 63 L 9 63 Z "></path>
<path style=" fill:#F9DD8F;" d="M 51 55 L 55 55 L 55 63 L 51 63 Z "></path>
<path style=" fill:#CDA1A7;" d="M 1.5 45.5 L 62.5 45.5 L 62.5 54.5 L 1.5 54.5 Z "></path>
<path style=" fill:#C4939C;" d="M 5.5 50 L 58.5 50 C 60.710938 50 62.5 51.789063 62.5 54 L 62.5 54.5 L 1.5 54.5 L 1.5 54 C 1.5 51.789063 3.289063 50 5.5 50 Z "></path>
<path style=" fill:#2c3e50;" d="M 12 48 C 11.449219 48 11 48.449219 11 49 L 11 51 C 11 51.550781 11.449219 52 12 52 C 12.550781 52 13 51.550781 13 51 L 13 49 C 13 48.449219 12.550781 48 12 48 Z "></path>
<path style=" fill:#2c3e50;" d="M 7 48 C 6.449219 48 6 48.449219 6 49 L 6 51 C 6 51.550781 6.449219 52 7 52 C 7.550781 52 8 51.550781 8 51 L 8 49 C 8 48.449219 7.550781 48 7 48 Z "></path>
<path style=" fill:#2c3e50;" d="M 17 48 C 16.449219 48 16 48.449219 16 49 L 16 51 C 16 51.550781 16.449219 52 17 52 C 17.550781 52 18 51.550781 18 51 L 18 49 C 18 48.449219 17.550781 48 17 48 Z "></path>
<path style=" fill:#2c3e50;" d="M 22 48 C 21.449219 48 21 48.449219 21 49 L 21 51 C 21 51.550781 21.449219 52 22 52 C 22.550781 52 23 51.550781 23 51 L 23 49 C 23 48.449219 22.550781 48 22 48 Z "></path>
<path style=" fill:#2c3e50;" d="M 27 48 C 26.449219 48 26 48.449219 26 49 L 26 51 C 26 51.550781 26.449219 52 27 52 C 27.550781 52 28 51.550781 28 51 L 28 49 C 28 48.449219 27.550781 48 27 48 Z "></path>
<path style=" fill:#2c3e50;" d="M 32 48 C 31.449219 48 31 48.449219 31 49 L 31 51 C 31 51.550781 31.449219 52 32 52 C 32.550781 52 33 51.550781 33 51 L 33 49 C 33 48.449219 32.550781 48 32 48 Z "></path>
<path style=" fill:#2c3e50;" d="M 37 48 C 36.449219 48 36 48.449219 36 49 L 36 51 C 36 51.550781 36.449219 52 37 52 C 37.550781 52 38 51.550781 38 51 L 38 49 C 38 48.449219 37.550781 48 37 48 Z "></path>
<path style=" fill:#2c3e50;" d="M 42 48 C 41.449219 48 41 48.449219 41 49 L 41 51 C 41 51.550781 41.449219 52 42 52 C 42.550781 52 43 51.550781 43 51 L 43 49 C 43 48.449219 42.550781 48 42 48 Z "></path>
<path style=" fill:#2c3e50;" d="M 47 48 C 46.449219 48 46 48.449219 46 49 L 46 51 C 46 51.550781 46.449219 52 47 52 C 47.550781 52 48 51.550781 48 51 L 48 49 C 48 48.449219 47.550781 48 47 48 Z "></path>
<path style=" fill:#2c3e50;" d="M 57 48 C 56.449219 48 56 48.449219 56 49 L 56 51 C 56 51.550781 56.449219 52 57 52 C 57.550781 52 58 51.550781 58 51 L 58 49 C 58 48.449219 57.550781 48 57 48 Z "></path>
<path style=" fill:#2c3e50;" d="M 52 48 C 51.449219 48 51 48.449219 51 49 L 51 51 C 51 51.550781 51.449219 52 52 52 C 52.550781 52 53 51.550781 53 51 L 53 49 C 53 48.449219 52.550781 48 52 48 Z "></path>
<path style=" fill:#2c3e50;" d="M 61 44 L 58 44 L 58 15 C 58 13.34375 56.65625 12 55 12 L 51 12 C 50.660156 12.003906 50.320313 12.0625 50 12.179688 L 50 5 C 50 3.34375 48.65625 2 47 2 L 39 2 C 37.34375 2 36 3.34375 36 5 L 36 6.179688 C 35.679688 6.0625 35.339844 6.003906 35 6 L 27 6 C 25.34375 6 24 7.34375 24 9 L 24 12.660156 C 23.78125 12.53125 23.546875 12.429688 23.300781 12.359375 L 17.5 10.800781 C 15.902344 10.375 14.257813 11.320313 13.828125 12.921875 L 6.578125 40 C 6.171875 41.589844 7.117188 43.210938 8.699219 43.640625 L 10 44 L 3 44 C 1.34375 44 0 45.34375 0 47 L 0 53 C 0 54.65625 1.34375 56 3 56 L 8 56 L 8 61 C 8 62.65625 9.34375 64 11 64 C 12.65625 64 14 62.65625 14 61 L 14 56 L 50 56 L 50 61 C 50 62.65625 51.34375 64 53 64 C 54.65625 64 56 62.65625 56 61 L 56 56 L 61 56 C 62.65625 56 64 54.65625 64 53 L 64 47 C 64 45.34375 62.65625 44 61 44 Z M 51 14 L 55 14 C 55.550781 14 56 14.449219 56 15 L 56 44 L 50 44 L 50 42 L 54 42 C 54.550781 42 55 41.550781 55 41 C 55 40.449219 54.550781 40 54 40 L 50 40 L 50 20 L 54 20 C 54.550781 20 55 19.550781 55 19 C 55 18.449219 54.550781 18 54 18 L 50 18 L 50 15 C 50 14.449219 50.449219 14 51 14 Z M 38 5 C 38 4.449219 38.449219 4 39 4 L 47 4 C 47.550781 4 48 4.449219 48 5 L 48 44 L 38 44 Z M 26 9 C 26 8.449219 26.449219 8 27 8 L 35 8 C 35.550781 8 36 8.449219 36 9 L 36 44 L 26 44 Z M 8.511719 40.488281 L 15.761719 13.488281 C 15.816406 13.21875 15.980469 12.988281 16.214844 12.84375 C 16.449219 12.699219 16.734375 12.65625 17 12.730469 L 22.800781 14.28125 C 23.058594 14.347656 23.277344 14.515625 23.410156 14.746094 C 23.542969 14.976563 23.582031 15.253906 23.511719 15.511719 L 16.261719 42.511719 C 16.117188 43.042969 15.574219 43.359375 15.039063 43.21875 L 9.238281 41.671875 C 8.71875 41.535156 8.394531 41.015625 8.511719 40.488281 Z M 18.171875 43.078125 L 24 21.328125 L 24 44 L 17.730469 44 C 17.929688 43.71875 18.078125 43.410156 18.171875 43.078125 Z M 12 61 C 12 61.550781 11.550781 62 11 62 C 10.449219 62 10 61.550781 10 61 L 10 56 L 12 56 Z M 54 61 C 54 61.550781 53.550781 62 53 62 C 52.449219 62 52 61.550781 52 61 L 52 56 L 54 56 Z M 62 53 C 62 53.550781 61.550781 54 61 54 L 3 54 C 2.449219 54 2 53.550781 2 53 L 2 47 C 2 46.449219 2.449219 46 3 46 L 61 46 C 61.550781 46 62 46.449219 62 47 Z "></path>
<path style=" fill:#2c3e50;" d="M 33 12 L 29 12 C 28.449219 12 28 12.449219 28 13 C 28 13.550781 28.449219 14 29 14 L 33 14 C 33.550781 14 34 13.550781 34 13 C 34 12.449219 33.550781 12 33 12 Z "></path>
<path style=" fill:#2c3e50;" d="M 41 10 L 45 10 C 45.550781 10 46 9.550781 46 9 C 46 8.449219 45.550781 8 45 8 L 41 8 C 40.449219 8 40 8.449219 40 9 C 40 9.550781 40.449219 10 41 10 Z "></path>
<path style=" fill:#2c3e50;" d="M 41 42 L 45 42 C 45.550781 42 46 41.550781 46 41 C 46 40.449219 45.550781 40 45 40 L 41 40 C 40.449219 40 40 40.449219 40 41 C 40 41.550781 40.449219 42 41 42 Z "></path>
<path style=" fill:#2c3e50;" d="M 33 40 L 29 40 C 28.449219 40 28 40.449219 28 41 C 28 41.550781 28.449219 42 29 42 L 33 42 C 33.550781 42 34 41.550781 34 41 C 34 40.449219 33.550781 40 33 40 Z "></path>
<path style=" fill:#2c3e50;" d="M 16.921875 16.859375 L 20.78125 17.859375 C 21.140625 18.074219 21.597656 18.039063 21.925781 17.773438 C 22.25 17.507813 22.375 17.066406 22.234375 16.667969 C 22.09375 16.269531 21.71875 16.003906 21.300781 16 L 17.441406 15 C 16.914063 14.878906 16.386719 15.195313 16.246094 15.714844 C 16.105469 16.234375 16.40625 16.773438 16.921875 16.929688 Z "></path>
<path style=" fill:#2c3e50;" d="M 15.789063 40.371094 C 15.929688 39.835938 15.613281 39.292969 15.078125 39.148438 L 11.21875 38.148438 C 10.859375 37.925781 10.394531 37.953125 10.066406 38.222656 C 9.734375 38.488281 9.609375 38.9375 9.75 39.335938 C 9.894531 39.738281 10.273438 40.003906 10.699219 40 L 14.558594 41 C 15.09375 41.140625 15.636719 40.824219 15.78125 40.289063 Z "></path>
</g>
</svg>