<svg xmlns="http://www.w3.org/2000/svg" xmlns:xlink="http://www.w3.org/1999/xlink" viewBox="0 0 48 48" version="1.1">
<g>
<path style=" fill:#FF5722;" d="M 24 13 L 26.898438 18.898438 L 27.800781 20.800781 L 29.898438 21.101563 L 36.398438 22 L 31.699219 26.601563 L 30.199219 28.101563 L 30.601563 30.199219 L 31.699219 36.699219 L 25.898438 33.601563 L 24 32.601563 L 22.101563 33.601563 L 16.300781 36.699219 L 17.398438 30.199219 L 17.800781 28.101563 L 16.300781 26.601563 L 11.601563 22 L 18.101563 21.101563 L 20.199219 20.800781 L 21.101563 18.898438 L 24 13 M 24 4 L 17.5 17.199219 L 3 19.300781 L 13.5 29.5 L 11 44 L 24 37.199219 L 37 44 L 34.5 29.5 L 45 19.300781 L 30.5 17.199219 Z "></path>
</g>
</svg>